<?xml version="1.0" encoding="UTF-8"?>
<svg width="1080px" height="737px" viewBox="0 0 1080 737" version="1.1" xmlns="http://www.w3.org/2000/svg" xmlns:xlink="http://www.w3.org/1999/xlink">
    <!-- Generator: Sketch 48.1 (47250) - http://www.bohemiancoding.com/sketch -->
    <title>Artboard 4</title>
    <desc>Created with Sketch.</desc>
    <defs></defs>
    <g id="Page-1" stroke="none" stroke-width="1" fill="none" fill-rule="evenodd">
        <g id="Artboard-4">
            <image id="proyectos-map" x="91" y="6" width="900" height="725" xlink:href="app/img/proyectos-map.png"></image>
            <g id="mark-p1" transform="translate(219.000000, 298.000000)">
                <path d="M28,0.0014269186 C27.905381,0.000476393653 27.8106485,0 27.7158047,0 C12.4087885,0 0,12.4087885 0,27.7158047 C0,43.022821 21.6336394,92 27.7158047,92 C27.8070763,92 27.9018499,91.9889707 28,91.9671914 L28,0.00142746991 L28,0.0014269186 Z" id="mark-left" fill="#ED7B26"></path>
                <path d="M28,0.0014269186 C28.094619,0.000476393653 28.1893515,0 28.2841953,0 C43.5912115,0 56,12.4087885 56,27.7158047 C56,43.022821 34.3663606,92 28.2841953,92 C28.1929237,92 28.0981501,91.9889707 28,91.9671914 L28,0.00142746991 L28,0.0014269186 Z" id="mark-right" fill="#EF5A24"></path>
                <circle id="circ" fill="#FFFFFF" cx="28" cy="28" r="14"></circle>
            </g>
            <g id="mark-p2" transform="translate(528.000000, 439.000000)">
                <path d="M28,0.0014269186 C27.905381,0.000476393653 27.8106485,0 27.7158047,0 C12.4087885,0 0,12.4087885 0,27.7158047 C0,43.022821 21.6336394,92 27.7158047,92 C27.8070763,92 27.9018499,91.9889707 28,91.9671914 L28,0.00142746991 L28,0.0014269186 Z" id="mark-left" fill="#ED7B26"></path>
                <path d="M28,0.0014269186 C28.094619,0.000476393653 28.1893515,0 28.2841953,0 C43.5912115,0 56,12.4087885 56,27.7158047 C56,43.022821 34.3663606,92 28.2841953,92 C28.1929237,92 28.0981501,91.9889707 28,91.9671914 L28,0.00142746991 L28,0.0014269186 Z" id="mark-right" fill="#EF5A24"></path>
                <circle id="circ" fill="#FFFFFF" cx="28" cy="28" r="14"></circle>
            </g>
            <g id="mark-p3" transform="translate(648.000000, 266.000000)">
                <path d="M28,0.0014269186 C27.905381,0.000476393653 27.8106485,0 27.7158047,0 C12.4087885,0 0,12.4087885 0,27.7158047 C0,43.022821 21.6336394,92 27.7158047,92 C27.8070763,92 27.9018499,91.9889707 28,91.9671914 L28,0.00142746991 L28,0.0014269186 Z" id="mark-left" fill="#ED7B26"></path>
                <path d="M28,0.0014269186 C28.094619,0.000476393653 28.1893515,0 28.2841953,0 C43.5912115,0 56,12.4087885 56,27.7158047 C56,43.022821 34.3663606,92 28.2841953,92 C28.1929237,92 28.0981501,91.9889707 28,91.9671914 L28,0.00142746991 L28,0.0014269186 Z" id="mark-right" fill="#EF5A24"></path>
                <circle id="circ" fill="#FFFFFF" cx="28" cy="28" r="14"></circle>
            </g>
        </g>
    </g>
</svg>
